<svg xmlns="http://www.w3.org/2000/svg" xmlns:xlink="http://www.w3.org/1999/xlink" width="200" zoomAndPan="magnify" viewBox="0 0 150 37.5" height="50" preserveAspectRatio="xMidYMid meet" version="1.0"><defs><g/><clipPath id="e912ad83e8"><rect x="0" width="62" y="0" height="35"/></clipPath></defs><g transform="matrix(1, 0, 0, 1, 45, -0.000000000000001478)"><g clip-path="url(#e912ad83e8)"><g fill="#fefae0" fill-opacity="1"><g transform="translate(0.857285, 23.082219)"><g><path d="M 23.71875 -22.015625 C 23.832031 -21.953125 23.90625 -21.863281 23.9375 -21.75 C 23.976562 -21.632812 23.972656 -21.523438 23.921875 -21.421875 C 23.804688 -21.203125 23.671875 -20.929688 23.515625 -20.609375 C 23.359375 -20.296875 23.179688 -19.953125 22.984375 -19.578125 C 22.503906 -18.617188 21.921875 -17.46875 21.234375 -16.125 C 20.546875 -14.789062 19.796875 -13.347656 18.984375 -11.796875 C 18.179688 -10.253906 17.335938 -8.671875 16.453125 -7.046875 C 15.578125 -5.429688 14.691406 -3.847656 13.796875 -2.296875 C 12.691406 -0.398438 11.710938 1.195312 10.859375 2.5 C 10.015625 3.8125 9.269531 4.878906 8.625 5.703125 C 7.976562 6.523438 7.414062 7.160156 6.9375 7.609375 C 6.46875 8.066406 6.066406 8.378906 5.734375 8.546875 C 5.410156 8.722656 5.128906 8.8125 4.890625 8.8125 C 4.785156 8.8125 4.679688 8.796875 4.578125 8.765625 C 4.171875 8.671875 3.875 8.421875 3.6875 8.015625 C 3.5 7.609375 3.378906 7.140625 3.328125 6.609375 C 3.273438 6.078125 3.253906 5.570312 3.265625 5.09375 C 3.285156 4.34375 3.367188 3.414062 3.515625 2.3125 C 3.660156 1.21875 3.859375 0.0078125 4.109375 -1.3125 C 4.359375 -2.632812 4.632812 -4.003906 4.9375 -5.421875 C 5.25 -6.835938 5.570312 -8.234375 5.90625 -9.609375 C 6.238281 -10.992188 6.550781 -12.304688 6.84375 -13.546875 C 7.144531 -14.785156 7.410156 -15.875 7.640625 -16.8125 C 7.742188 -17.21875 7.835938 -17.582031 7.921875 -17.90625 C 8.003906 -18.226562 8.066406 -18.507812 8.109375 -18.75 C 8.316406 -19.601562 8.421875 -20.242188 8.421875 -20.671875 C 8.421875 -21.097656 8.378906 -21.382812 8.296875 -21.53125 C 8.210938 -21.6875 8.164062 -21.769531 8.15625 -21.78125 C 8.0625 -21.84375 7.894531 -21.835938 7.65625 -21.765625 C 7.414062 -21.691406 7.09375 -21.492188 6.6875 -21.171875 C 6.207031 -20.816406 5.71875 -20.347656 5.21875 -19.765625 C 4.726562 -19.191406 4.257812 -18.554688 3.8125 -17.859375 C 3.375 -17.171875 3 -16.46875 2.6875 -15.75 C 2.382812 -15.039062 2.175781 -14.363281 2.0625 -13.71875 C 1.945312 -13.070312 1.972656 -12.503906 2.140625 -12.015625 C 2.472656 -11.003906 3.457031 -10.484375 5.09375 -10.453125 C 5.207031 -10.453125 5.304688 -10.40625 5.390625 -10.3125 C 5.472656 -10.226562 5.515625 -10.125 5.515625 -10 C 5.515625 -9.894531 5.472656 -9.796875 5.390625 -9.703125 C 5.304688 -9.617188 5.207031 -9.582031 5.09375 -9.59375 C 4.25 -9.59375 3.566406 -9.707031 3.046875 -9.9375 C 2.535156 -10.164062 2.144531 -10.441406 1.875 -10.765625 C 1.601562 -11.085938 1.414062 -11.410156 1.3125 -11.734375 C 1.09375 -12.347656 1.046875 -13.035156 1.171875 -13.796875 C 1.304688 -14.554688 1.550781 -15.332031 1.90625 -16.125 C 2.257812 -16.925781 2.675781 -17.691406 3.15625 -18.421875 C 3.644531 -19.160156 4.148438 -19.832031 4.671875 -20.4375 C 5.203125 -21.039062 5.703125 -21.519531 6.171875 -21.875 C 6.816406 -22.375 7.332031 -22.640625 7.71875 -22.671875 C 8.113281 -22.703125 8.414062 -22.648438 8.625 -22.515625 C 9.363281 -22.023438 9.476562 -20.703125 8.96875 -18.546875 C 8.90625 -18.304688 8.832031 -18.023438 8.75 -17.703125 C 8.664062 -17.378906 8.582031 -17.015625 8.5 -16.609375 C 8.269531 -15.753906 8.007812 -14.722656 7.71875 -13.515625 C 7.4375 -12.316406 7.128906 -11.03125 6.796875 -9.65625 C 6.472656 -8.28125 6.15625 -6.878906 5.84375 -5.453125 C 5.539062 -4.023438 5.257812 -2.640625 5 -1.296875 C 4.75 0.0351562 4.539062 1.253906 4.375 2.359375 C 4.21875 3.460938 4.132812 4.378906 4.125 5.109375 C 4.125 5.921875 4.164062 6.523438 4.25 6.921875 C 4.332031 7.328125 4.425781 7.59375 4.53125 7.71875 C 4.632812 7.84375 4.71875 7.914062 4.78125 7.9375 C 4.851562 7.945312 5 7.914062 5.21875 7.84375 C 5.445312 7.769531 5.78125 7.53125 6.21875 7.125 C 6.664062 6.726562 7.25 6.054688 7.96875 5.109375 C 9.351562 3.304688 11.046875 0.6875 13.046875 -2.75 C 13.929688 -4.28125 14.816406 -5.851562 15.703125 -7.46875 C 16.585938 -9.082031 17.429688 -10.660156 18.234375 -12.203125 C 19.035156 -13.753906 19.773438 -15.191406 20.453125 -16.515625 C 21.128906 -17.847656 21.71875 -19 22.21875 -19.96875 C 22.414062 -20.351562 22.59375 -20.695312 22.75 -21 C 22.90625 -21.3125 23.035156 -21.582031 23.140625 -21.8125 C 23.203125 -21.914062 23.285156 -21.984375 23.390625 -22.015625 C 23.503906 -22.054688 23.613281 -22.054688 23.71875 -22.015625 Z M 23.71875 -22.015625 "/></g></g></g><g fill="#fefae0" fill-opacity="1"><g transform="translate(19.978931, 23.082219)"><g><path d="M 9.4375 -5 C 9.539062 -4.957031 9.613281 -4.878906 9.65625 -4.765625 C 9.695312 -4.648438 9.691406 -4.539062 9.640625 -4.4375 C 9.359375 -3.851562 9.046875 -3.265625 8.703125 -2.671875 C 8.367188 -2.085938 8.015625 -1.550781 7.640625 -1.0625 C 7.273438 -0.582031 6.894531 -0.195312 6.5 0.09375 C 6.113281 0.394531 5.726562 0.546875 5.34375 0.546875 C 5.269531 0.546875 5.1875 0.535156 5.09375 0.515625 C 4.082031 0.316406 3.457031 -1.03125 3.21875 -3.53125 C 2.96875 -3.1875 2.671875 -2.800781 2.328125 -2.375 C 1.992188 -1.945312 1.640625 -1.523438 1.265625 -1.109375 C 1.203125 -1.046875 1.101562 -0.945312 0.96875 -0.8125 C 0.832031 -0.6875 0.671875 -0.585938 0.484375 -0.515625 C 0.304688 -0.441406 0.128906 -0.453125 -0.046875 -0.546875 C -0.398438 -0.679688 -0.570312 -1.070312 -0.5625 -1.71875 C -0.5625 -2.09375 -0.488281 -2.554688 -0.34375 -3.109375 C -0.207031 -3.660156 -0.0078125 -4.21875 0.25 -4.78125 C 0.519531 -5.351562 0.832031 -5.851562 1.1875 -6.28125 C 1.539062 -6.71875 1.929688 -7.015625 2.359375 -7.171875 C 2.628906 -7.273438 2.957031 -7.289062 3.34375 -7.21875 C 3.738281 -7.15625 4.148438 -6.875 4.578125 -6.375 C 4.648438 -6.28125 4.679688 -6.171875 4.671875 -6.046875 C 4.660156 -5.929688 4.613281 -5.835938 4.53125 -5.765625 C 4.4375 -5.691406 4.328125 -5.65625 4.203125 -5.65625 C 4.085938 -5.664062 3.992188 -5.71875 3.921875 -5.8125 C 3.554688 -6.226562 3.242188 -6.425781 2.984375 -6.40625 C 2.722656 -6.382812 2.503906 -6.304688 2.328125 -6.171875 C 1.992188 -5.929688 1.691406 -5.585938 1.421875 -5.140625 C 1.148438 -4.691406 0.921875 -4.21875 0.734375 -3.71875 C 0.554688 -3.21875 0.429688 -2.753906 0.359375 -2.328125 C 0.285156 -1.898438 0.265625 -1.585938 0.296875 -1.390625 C 0.335938 -1.421875 0.382812 -1.457031 0.4375 -1.5 C 0.488281 -1.550781 0.546875 -1.613281 0.609375 -1.6875 C 1.054688 -2.1875 1.46875 -2.675781 1.84375 -3.15625 C 2.21875 -3.644531 2.539062 -4.082031 2.8125 -4.46875 C 2.882812 -4.570312 2.953125 -4.671875 3.015625 -4.765625 C 3.085938 -4.859375 3.15625 -4.945312 3.21875 -5.03125 C 3.34375 -5.175781 3.5 -5.21875 3.6875 -5.15625 C 3.882812 -5.113281 3.992188 -4.988281 4.015625 -4.78125 C 4.054688 -3.800781 4.132812 -3.015625 4.25 -2.421875 C 4.363281 -1.828125 4.488281 -1.382812 4.625 -1.09375 C 4.757812 -0.800781 4.882812 -0.601562 5 -0.5 C 5.125 -0.394531 5.210938 -0.34375 5.265625 -0.34375 C 5.554688 -0.28125 6.015625 -0.570312 6.640625 -1.21875 C 7.273438 -1.863281 8.015625 -3.054688 8.859375 -4.796875 C 8.910156 -4.921875 8.992188 -5 9.109375 -5.03125 C 9.222656 -5.070312 9.332031 -5.0625 9.4375 -5 Z M 9.4375 -5 "/></g></g></g><g fill="#fefae0" fill-opacity="1"><g transform="translate(28.35733, 23.082219)"><g><path d="M 6.625 -21.109375 C 6.820312 -20.828125 6.828125 -20.25 6.640625 -19.375 C 6.453125 -18.5 6.0625 -17.421875 5.46875 -16.140625 C 4.882812 -14.859375 4.101562 -13.4375 3.125 -11.875 C 3.113281 -11.851562 3.101562 -11.835938 3.09375 -11.828125 C 2.695312 -10.234375 2.304688 -8.609375 1.921875 -6.953125 C 1.546875 -5.304688 1.179688 -3.6875 0.828125 -2.09375 C 0.484375 -0.5 0.171875 0.992188 -0.109375 2.390625 C -0.398438 3.796875 -0.644531 5.046875 -0.84375 6.140625 C -1.050781 7.242188 -1.195312 8.125 -1.28125 8.78125 C -1.269531 8.78125 -1.253906 8.78125 -1.234375 8.78125 C -1.117188 8.832031 -1.035156 8.910156 -0.984375 9.015625 C -0.929688 9.117188 -0.925781 9.226562 -0.96875 9.34375 C -1.070312 9.632812 -1.179688 9.894531 -1.296875 10.125 C -1.410156 10.363281 -1.5625 10.484375 -1.75 10.484375 C -1.800781 10.484375 -1.859375 10.472656 -1.921875 10.453125 C -2.054688 10.410156 -2.148438 10.316406 -2.203125 10.171875 C -2.265625 10.023438 -2.269531 9.738281 -2.21875 9.3125 C -2.175781 8.882812 -2.082031 8.226562 -1.9375 7.34375 C -1.664062 5.71875 -1.257812 3.597656 -0.71875 0.984375 C -0.332031 -0.835938 0.0703125 -2.695312 0.5 -4.59375 C 0.9375 -6.5 1.363281 -8.332031 1.78125 -10.09375 C 2.195312 -11.863281 2.601562 -13.472656 3 -14.921875 C 3.070312 -15.203125 3.179688 -15.597656 3.328125 -16.109375 C 3.484375 -16.617188 3.65625 -17.164062 3.84375 -17.75 C 4.039062 -18.34375 4.257812 -18.90625 4.5 -19.4375 C 4.738281 -19.976562 4.988281 -20.425781 5.25 -20.78125 C 5.507812 -21.132812 5.765625 -21.332031 6.015625 -21.375 C 6.273438 -21.425781 6.476562 -21.335938 6.625 -21.109375 Z M 3.875 -14.84375 C 4.59375 -16.195312 5.097656 -17.320312 5.390625 -18.21875 C 5.679688 -19.125 5.851562 -19.78125 5.90625 -20.1875 C 5.695312 -19.882812 5.410156 -19.316406 5.046875 -18.484375 C 4.679688 -17.648438 4.289062 -16.4375 3.875 -14.84375 Z M 3.875 -14.84375 "/></g></g></g><g fill="#fefae0" fill-opacity="1"><g transform="translate(31.780758, 23.082219)"><g><path d="M 6.625 -21.109375 C 6.820312 -20.828125 6.828125 -20.25 6.640625 -19.375 C 6.453125 -18.5 6.0625 -17.421875 5.46875 -16.140625 C 4.882812 -14.859375 4.101562 -13.4375 3.125 -11.875 C 3.113281 -11.851562 3.101562 -11.835938 3.09375 -11.828125 C 2.695312 -10.234375 2.304688 -8.609375 1.921875 -6.953125 C 1.546875 -5.304688 1.179688 -3.6875 0.828125 -2.09375 C 0.484375 -0.5 0.171875 0.992188 -0.109375 2.390625 C -0.398438 3.796875 -0.644531 5.046875 -0.84375 6.140625 C -1.050781 7.242188 -1.195312 8.125 -1.28125 8.78125 C -1.269531 8.78125 -1.253906 8.78125 -1.234375 8.78125 C -1.117188 8.832031 -1.035156 8.910156 -0.984375 9.015625 C -0.929688 9.117188 -0.925781 9.226562 -0.96875 9.34375 C -1.070312 9.632812 -1.179688 9.894531 -1.296875 10.125 C -1.410156 10.363281 -1.5625 10.484375 -1.75 10.484375 C -1.800781 10.484375 -1.859375 10.472656 -1.921875 10.453125 C -2.054688 10.410156 -2.148438 10.316406 -2.203125 10.171875 C -2.265625 10.023438 -2.269531 9.738281 -2.21875 9.3125 C -2.175781 8.882812 -2.082031 8.226562 -1.9375 7.34375 C -1.664062 5.71875 -1.257812 3.597656 -0.71875 0.984375 C -0.332031 -0.835938 0.0703125 -2.695312 0.5 -4.59375 C 0.9375 -6.5 1.363281 -8.332031 1.78125 -10.09375 C 2.195312 -11.863281 2.601562 -13.472656 3 -14.921875 C 3.070312 -15.203125 3.179688 -15.597656 3.328125 -16.109375 C 3.484375 -16.617188 3.65625 -17.164062 3.84375 -17.75 C 4.039062 -18.34375 4.257812 -18.90625 4.5 -19.4375 C 4.738281 -19.976562 4.988281 -20.425781 5.25 -20.78125 C 5.507812 -21.132812 5.765625 -21.332031 6.015625 -21.375 C 6.273438 -21.425781 6.476562 -21.335938 6.625 -21.109375 Z M 3.875 -14.84375 C 4.59375 -16.195312 5.097656 -17.320312 5.390625 -18.21875 C 5.679688 -19.125 5.851562 -19.78125 5.90625 -20.1875 C 5.695312 -19.882812 5.410156 -19.316406 5.046875 -18.484375 C 4.679688 -17.648438 4.289062 -16.4375 3.875 -14.84375 Z M 3.875 -14.84375 "/></g></g></g><g fill="#fefae0" fill-opacity="1"><g transform="translate(35.204187, 23.082219)"><g><path d="M 7.609375 -5.03125 C 7.710938 -4.96875 7.769531 -4.875 7.78125 -4.75 C 7.800781 -4.632812 7.785156 -4.53125 7.734375 -4.4375 C 6.847656 -3.207031 6.035156 -2.191406 5.296875 -1.390625 C 4.554688 -0.585938 3.820312 0.078125 3.09375 0.609375 C 2.53125 0.992188 1.976562 1.1875 1.4375 1.1875 C 1.019531 1.1875 0.65625 1.078125 0.34375 0.859375 C 0.125 0.703125 -0.0820312 0.429688 -0.28125 0.046875 C -0.476562 -0.328125 -0.582031 -0.878906 -0.59375 -1.609375 C -0.613281 -2.335938 -0.4375 -3.296875 -0.0625 -4.484375 C -0.0625 -4.484375 -0.0625 -4.488281 -0.0625 -4.5 C 0.382812 -5.945312 0.910156 -7.046875 1.515625 -7.796875 C 2.128906 -8.554688 2.65625 -8.945312 3.09375 -8.96875 C 3.4375 -8.976562 3.660156 -8.828125 3.765625 -8.515625 C 3.929688 -8.078125 3.734375 -7.457031 3.171875 -6.65625 C 2.617188 -5.851562 1.800781 -5 0.71875 -4.09375 C 0.382812 -3.050781 0.222656 -2.234375 0.234375 -1.640625 C 0.253906 -1.046875 0.335938 -0.613281 0.484375 -0.34375 C 0.640625 -0.0820312 0.765625 0.0820312 0.859375 0.15625 C 1.304688 0.488281 1.882812 0.398438 2.59375 -0.109375 C 3.28125 -0.585938 3.976562 -1.210938 4.6875 -1.984375 C 5.394531 -2.765625 6.164062 -3.75 7 -4.9375 C 7.082031 -5.019531 7.179688 -5.070312 7.296875 -5.09375 C 7.421875 -5.125 7.523438 -5.101562 7.609375 -5.03125 Z M 2.921875 -8.015625 C 2.765625 -7.910156 2.539062 -7.6875 2.25 -7.34375 C 1.96875 -7.007812 1.675781 -6.519531 1.375 -5.875 C 1.914062 -6.40625 2.296875 -6.851562 2.515625 -7.21875 C 2.742188 -7.582031 2.878906 -7.847656 2.921875 -8.015625 Z M 2.921875 -8.015625 "/></g></g></g><g fill="#fefae0" fill-opacity="1"><g transform="translate(41.758249, 23.082219)"><g><path d="M 9.890625 -5.109375 C 9.992188 -5.054688 10.066406 -4.972656 10.109375 -4.859375 C 10.160156 -4.742188 10.15625 -4.632812 10.09375 -4.53125 C 9.8125 -3.914062 9.460938 -3.222656 9.046875 -2.453125 C 8.628906 -1.691406 8.1875 -0.921875 7.71875 -0.140625 C 7.257812 0.628906 6.789062 1.332031 6.3125 1.96875 C 5.832031 2.601562 5.363281 3.117188 4.90625 3.515625 C 4.457031 3.921875 4.050781 4.125 3.6875 4.125 C 3.582031 4.125 3.488281 4.101562 3.40625 4.0625 C 3.082031 3.9375 2.875 3.648438 2.78125 3.203125 C 2.6875 2.753906 2.695312 2.109375 2.8125 1.265625 C 3.019531 -0.253906 3.578125 -2.40625 4.484375 -5.1875 C 4.472656 -5.1875 4.460938 -5.179688 4.453125 -5.171875 C 4.441406 -5.160156 4.429688 -5.15625 4.421875 -5.15625 C 4.117188 -4.945312 3.753906 -4.726562 3.328125 -4.5 C 2.910156 -4.28125 2.476562 -4.128906 2.03125 -4.046875 C 1.582031 -3.972656 1.15625 -4.070312 0.75 -4.34375 C 0.175781 -4.75 -0.113281 -5.3125 -0.125 -6.03125 C -0.144531 -6.757812 0.117188 -7.550781 0.671875 -8.40625 C 0.859375 -8.675781 1.097656 -8.972656 1.390625 -9.296875 C 1.679688 -9.628906 1.988281 -9.882812 2.3125 -10.0625 C 2.632812 -10.25 2.921875 -10.257812 3.171875 -10.09375 C 3.304688 -10.019531 3.40625 -9.890625 3.46875 -9.703125 C 3.539062 -9.523438 3.539062 -9.25 3.46875 -8.875 C 3.394531 -8.5 3.210938 -7.992188 2.921875 -7.359375 C 2.640625 -6.734375 2.210938 -5.914062 1.640625 -4.90625 C 1.984375 -4.863281 2.367188 -4.960938 2.796875 -5.203125 C 3.234375 -5.441406 3.613281 -5.664062 3.9375 -5.875 C 4.257812 -6.09375 4.523438 -6.25 4.734375 -6.34375 C 4.941406 -6.4375 5.132812 -6.414062 5.3125 -6.28125 C 5.476562 -6.144531 5.546875 -5.976562 5.515625 -5.78125 C 5.484375 -5.59375 5.457031 -5.445312 5.4375 -5.34375 C 4.9375 -3.78125 4.550781 -2.476562 4.28125 -1.4375 C 4.007812 -0.40625 3.820312 0.421875 3.71875 1.046875 C 3.625 1.679688 3.578125 2.15625 3.578125 2.46875 C 3.578125 2.789062 3.597656 3 3.640625 3.09375 C 3.691406 3.195312 3.71875 3.253906 3.71875 3.265625 C 3.894531 3.296875 4.265625 3.003906 4.828125 2.390625 C 5.390625 1.785156 6.0625 0.875 6.84375 -0.34375 C 7.625 -1.570312 8.445312 -3.085938 9.3125 -4.890625 C 9.363281 -5.003906 9.445312 -5.082031 9.5625 -5.125 C 9.675781 -5.164062 9.785156 -5.160156 9.890625 -5.109375 Z M 0.8125 -6.640625 C 0.71875 -6.328125 0.6875 -6.066406 0.71875 -5.859375 C 0.757812 -5.660156 0.820312 -5.503906 0.90625 -5.390625 C 1.382812 -6.222656 1.742188 -6.898438 1.984375 -7.421875 C 2.234375 -7.953125 2.40625 -8.359375 2.5 -8.640625 C 2.59375 -8.929688 2.644531 -9.140625 2.65625 -9.265625 C 2.488281 -9.171875 2.28125 -8.992188 2.03125 -8.734375 C 1.789062 -8.484375 1.550781 -8.175781 1.3125 -7.8125 C 1.082031 -7.457031 0.914062 -7.066406 0.8125 -6.640625 Z M 0.8125 -6.640625 "/></g></g></g><g fill="#fefae0" fill-opacity="1"><g transform="translate(50.744755, 23.082219)"><g><path d="M 9.4375 -5 C 9.539062 -4.957031 9.613281 -4.878906 9.65625 -4.765625 C 9.695312 -4.648438 9.691406 -4.539062 9.640625 -4.4375 C 9.359375 -3.851562 9.046875 -3.265625 8.703125 -2.671875 C 8.367188 -2.085938 8.015625 -1.550781 7.640625 -1.0625 C 7.273438 -0.582031 6.894531 -0.195312 6.5 0.09375 C 6.113281 0.394531 5.726562 0.546875 5.34375 0.546875 C 5.269531 0.546875 5.1875 0.535156 5.09375 0.515625 C 4.082031 0.316406 3.457031 -1.03125 3.21875 -3.53125 C 2.96875 -3.1875 2.671875 -2.800781 2.328125 -2.375 C 1.992188 -1.945312 1.640625 -1.523438 1.265625 -1.109375 C 1.203125 -1.046875 1.101562 -0.945312 0.96875 -0.8125 C 0.832031 -0.6875 0.671875 -0.585938 0.484375 -0.515625 C 0.304688 -0.441406 0.128906 -0.453125 -0.046875 -0.546875 C -0.398438 -0.679688 -0.570312 -1.070312 -0.5625 -1.71875 C -0.5625 -2.09375 -0.488281 -2.554688 -0.34375 -3.109375 C -0.207031 -3.660156 -0.0078125 -4.21875 0.25 -4.78125 C 0.519531 -5.351562 0.832031 -5.851562 1.1875 -6.28125 C 1.539062 -6.71875 1.929688 -7.015625 2.359375 -7.171875 C 2.628906 -7.273438 2.957031 -7.289062 3.34375 -7.21875 C 3.738281 -7.15625 4.148438 -6.875 4.578125 -6.375 C 4.648438 -6.28125 4.679688 -6.171875 4.671875 -6.046875 C 4.660156 -5.929688 4.613281 -5.835938 4.53125 -5.765625 C 4.4375 -5.691406 4.328125 -5.65625 4.203125 -5.65625 C 4.085938 -5.664062 3.992188 -5.71875 3.921875 -5.8125 C 3.554688 -6.226562 3.242188 -6.425781 2.984375 -6.40625 C 2.722656 -6.382812 2.503906 -6.304688 2.328125 -6.171875 C 1.992188 -5.929688 1.691406 -5.585938 1.421875 -5.140625 C 1.148438 -4.691406 0.921875 -4.21875 0.734375 -3.71875 C 0.554688 -3.21875 0.429688 -2.753906 0.359375 -2.328125 C 0.285156 -1.898438 0.265625 -1.585938 0.296875 -1.390625 C 0.335938 -1.421875 0.382812 -1.457031 0.4375 -1.5 C 0.488281 -1.550781 0.546875 -1.613281 0.609375 -1.6875 C 1.054688 -2.1875 1.46875 -2.675781 1.84375 -3.15625 C 2.21875 -3.644531 2.539062 -4.082031 2.8125 -4.46875 C 2.882812 -4.570312 2.953125 -4.671875 3.015625 -4.765625 C 3.085938 -4.859375 3.15625 -4.945312 3.21875 -5.03125 C 3.34375 -5.175781 3.5 -5.21875 3.6875 -5.15625 C 3.882812 -5.113281 3.992188 -4.988281 4.015625 -4.78125 C 4.054688 -3.800781 4.132812 -3.015625 4.25 -2.421875 C 4.363281 -1.828125 4.488281 -1.382812 4.625 -1.09375 C 4.757812 -0.800781 4.882812 -0.601562 5 -0.5 C 5.125 -0.394531 5.210938 -0.34375 5.265625 -0.34375 C 5.554688 -0.28125 6.015625 -0.570312 6.640625 -1.21875 C 7.273438 -1.863281 8.015625 -3.054688 8.859375 -4.796875 C 8.910156 -4.921875 8.992188 -5 9.109375 -5.03125 C 9.222656 -5.070312 9.332031 -5.0625 9.4375 -5 Z M 9.4375 -5 "/></g></g></g></g></g></svg>